<svg width="43" height="42" viewBox="0 0 43 42" fill="none" xmlns="http://www.w3.org/2000/svg">
<path d="M39.0781 11.2812H41.2656C41.5557 11.2812 41.8339 11.166 42.039 10.9609C42.2441 10.7558 42.3594 10.4776 42.3594 10.1875C42.3594 9.89742 42.2441 9.61922 42.039 9.4141C41.8339 9.20898 41.5557 9.09375 41.2656 9.09375H39.0781V6.90625C39.0781 6.03601 38.7324 5.20141 38.1171 4.58606C37.5017 3.9707 36.6671 3.625 35.7969 3.625H33.6094V1.4375C33.6094 1.14742 33.4941 0.869219 33.289 0.664101C33.0839 0.458983 32.8057 0.34375 32.5156 0.34375C32.2255 0.34375 31.9473 0.458983 31.7422 0.664101C31.5371 0.869219 31.4219 1.14742 31.4219 1.4375V3.625H11.7344V1.4375C11.7344 1.14742 11.6191 0.869219 11.414 0.664101C11.2089 0.458983 10.9307 0.34375 10.6406 0.34375C10.3505 0.34375 10.0723 0.458983 9.86723 0.664101C9.66211 0.869219 9.54688 1.14742 9.54688 1.4375V3.625H7.35938C6.48913 3.625 5.65453 3.9707 5.03918 4.58606C4.42383 5.20141 4.07812 6.03601 4.07812 6.90625V9.09375H1.89062C1.60054 9.09375 1.32234 9.20898 1.11723 9.4141C0.912108 9.61922 0.796875 9.89742 0.796875 10.1875C0.796875 10.4776 0.912108 10.7558 1.11723 10.9609C1.32234 11.166 1.60054 11.2812 1.89062 11.2812H4.07812V30.9688H1.89062C1.60054 30.9688 1.32234 31.084 1.11723 31.2891C0.912108 31.4942 0.796875 31.7724 0.796875 32.0625C0.796875 32.3526 0.912108 32.6308 1.11723 32.8359C1.32234 33.041 1.60054 33.1562 1.89062 33.1562H4.07812V35.3438C4.07812 36.214 4.42383 37.0486 5.03918 37.6639C5.65453 38.2793 6.48913 38.625 7.35938 38.625H9.54688V40.8125C9.54688 41.1026 9.66211 41.3808 9.86723 41.5859C10.0723 41.791 10.3505 41.9062 10.6406 41.9062C10.9307 41.9062 11.2089 41.791 11.414 41.5859C11.6191 41.3808 11.7344 41.1026 11.7344 40.8125V38.625H31.4219V40.8125C31.4219 41.1026 31.5371 41.3808 31.7422 41.5859C31.9473 41.791 32.2255 41.9062 32.5156 41.9062C32.8057 41.9062 33.0839 41.791 33.289 41.5859C33.4941 41.3808 33.6094 41.1026 33.6094 40.8125V38.625H35.7969C36.6671 38.625 37.5017 38.2793 38.1171 37.6639C38.7324 37.0486 39.0781 36.214 39.0781 35.3438V33.1562H41.2656C41.5557 33.1562 41.8339 33.041 42.039 32.8359C42.2441 32.6308 42.3594 32.3526 42.3594 32.0625C42.3594 31.7724 42.2441 31.4942 42.039 31.2891C41.8339 31.084 41.5557 30.9688 41.2656 30.9688H39.0781V11.2812ZM33.6094 32.0625C33.6094 32.3526 33.4941 32.6308 33.289 32.8359C33.0839 33.041 32.8057 33.1562 32.5156 33.1562H10.6406C10.3505 33.1562 10.0723 33.041 9.86723 32.8359C9.66211 32.6308 9.54688 32.3526 9.54688 32.0625V10.1875C9.54688 9.89742 9.66211 9.61922 9.86723 9.4141C10.0723 9.20898 10.3505 9.09375 10.6406 9.09375H32.5156C32.8057 9.09375 33.0839 9.20898 33.289 9.4141C33.4941 9.61922 33.6094 9.89742 33.6094 10.1875V32.0625Z" fill="#FF6565"/>
</svg>
