<svg width="49" height="49" viewBox="0 0 49 49" fill="none" xmlns="http://www.w3.org/2000/svg">
<path d="M48.9062 24.8438V4.0625C48.9062 3.19226 48.5605 2.35766 47.9452 1.74231C47.3298 1.12695 46.4952 0.78125 45.625 0.78125H4.0625C3.19226 0.78125 2.35766 1.12695 1.74231 1.74231C1.12695 2.35766 0.78125 3.19226 0.78125 4.0625V24.8438H48.9062ZM24.8438 21.5625H22.6562C22.3662 21.5625 22.088 21.4473 21.8829 21.2421C21.6777 21.037 21.5625 20.7588 21.5625 20.4688C21.5625 20.1787 21.6777 19.9005 21.8829 19.6954C22.088 19.4902 22.3662 19.375 22.6562 19.375H24.8438C25.1338 19.375 25.412 19.4902 25.6171 19.6954C25.8223 19.9005 25.9375 20.1787 25.9375 20.4688C25.9375 20.7588 25.8223 21.037 25.6171 21.2421C25.412 21.4473 25.1338 21.5625 24.8438 21.5625ZM16.0938 15C15.8037 15 15.5255 14.8848 15.3204 14.6796C15.1152 14.4745 15 14.1963 15 13.9062C15 13.6162 15.1152 13.338 15.3204 13.1329C15.5255 12.9277 15.8037 12.8125 16.0938 12.8125H28.125C28.4151 12.8125 28.6933 12.9277 28.8984 13.1329C29.1035 13.338 29.2188 13.6162 29.2188 13.9062C29.2188 14.1963 29.1035 14.4745 28.8984 14.6796C28.6933 14.8848 28.4151 15 28.125 15H16.0938ZM34.6875 21.5625H29.2188C28.9287 21.5625 28.6505 21.4473 28.4454 21.2421C28.2402 21.037 28.125 20.7588 28.125 20.4688C28.125 20.1787 28.2402 19.9005 28.4454 19.6954C28.6505 19.4902 28.9287 19.375 29.2188 19.375H34.6875C34.9776 19.375 35.2558 19.4902 35.4609 19.6954C35.666 19.9005 35.7812 20.1787 35.7812 20.4688C35.7812 20.7588 35.666 21.037 35.4609 21.2421C35.2558 21.4473 34.9776 21.5625 34.6875 21.5625ZM41.25 21.5625H39.0625C38.7724 21.5625 38.4942 21.4473 38.2891 21.2421C38.084 21.037 37.9688 20.7588 37.9688 20.4688C37.9688 20.1787 38.084 19.9005 38.2891 19.6954C38.4942 19.4902 38.7724 19.375 39.0625 19.375H41.25C41.5401 19.375 41.8183 19.4902 42.0234 19.6954C42.2285 19.9005 42.3438 20.1787 42.3438 20.4688C42.3438 20.7588 42.2285 21.037 42.0234 21.2421C41.8183 21.4473 41.5401 21.5625 41.25 21.5625ZM41.25 15H39.0625C38.7724 15 38.4942 14.8848 38.2891 14.6796C38.084 14.4745 37.9688 14.1963 37.9688 13.9062C37.9688 13.6162 38.084 13.338 38.2891 13.1329C38.4942 12.9277 38.7724 12.8125 39.0625 12.8125H41.25C41.5401 12.8125 41.8183 12.9277 42.0234 13.1329C42.2285 13.338 42.3438 13.6162 42.3438 13.9062C42.3438 14.1963 42.2285 14.4745 42.0234 14.6796C41.8183 14.8848 41.5401 15 41.25 15ZM35.7812 6.25H41.25C41.5401 6.25 41.8183 6.36523 42.0234 6.57035C42.2285 6.77547 42.3438 7.05367 42.3438 7.34375C42.3438 7.63383 42.2285 7.91203 42.0234 8.11715C41.8183 8.32227 41.5401 8.4375 41.25 8.4375H35.7812C35.4912 8.4375 35.213 8.32227 35.0079 8.11715C34.8027 7.91203 34.6875 7.63383 34.6875 7.34375C34.6875 7.05367 34.8027 6.77547 35.0079 6.57035C35.213 6.36523 35.4912 6.25 35.7812 6.25ZM35.7812 13.9062C35.7812 14.1963 35.666 14.4745 35.4609 14.6796C35.2558 14.8848 34.9776 15 34.6875 15H32.5C32.2099 15 31.9317 14.8848 31.7266 14.6796C31.5215 14.4745 31.4062 14.1963 31.4062 13.9062C31.4062 13.6162 31.5215 13.338 31.7266 13.1329C31.9317 12.9277 32.2099 12.8125 32.5 12.8125H34.6875C34.9776 12.8125 35.2558 12.9277 35.4609 13.1329C35.666 13.338 35.7812 13.6162 35.7812 13.9062ZM25.9375 6.25H31.4062C31.6963 6.25 31.9745 6.36523 32.1796 6.57035C32.3848 6.77547 32.5 7.05367 32.5 7.34375C32.5 7.63383 32.3848 7.91203 32.1796 8.11715C31.9745 8.32227 31.6963 8.4375 31.4062 8.4375H25.9375C25.6474 8.4375 25.3692 8.32227 25.1641 8.11715C24.959 7.91203 24.8438 7.63383 24.8438 7.34375C24.8438 7.05367 24.959 6.77547 25.1641 6.57035C25.3692 6.36523 25.6474 6.25 25.9375 6.25ZM19.375 6.25H21.5625C21.8526 6.25 22.1308 6.36523 22.3359 6.57035C22.541 6.77547 22.6562 7.05367 22.6562 7.34375C22.6562 7.63383 22.541 7.91203 22.3359 8.11715C22.1308 8.32227 21.8526 8.4375 21.5625 8.4375H19.375C19.0849 8.4375 18.8067 8.32227 18.6016 8.11715C18.3965 7.91203 18.2812 7.63383 18.2812 7.34375C18.2812 7.05367 18.3965 6.77547 18.6016 6.57035C18.8067 6.36523 19.0849 6.25 19.375 6.25ZM9.53125 6.25H15C15.2901 6.25 15.5683 6.36523 15.7734 6.57035C15.9785 6.77547 16.0938 7.05367 16.0938 7.34375C16.0938 7.63383 15.9785 7.91203 15.7734 8.11715C15.5683 8.32227 15.2901 8.4375 15 8.4375H9.53125C9.24117 8.4375 8.96297 8.32227 8.75785 8.11715C8.55273 7.91203 8.4375 7.63383 8.4375 7.34375C8.4375 7.05367 8.55273 6.77547 8.75785 6.57035C8.96297 6.36523 9.24117 6.25 9.53125 6.25ZM8.4375 12.8125H11.7188C12.0088 12.8125 12.287 12.9277 12.4921 13.1329C12.6973 13.338 12.8125 13.6162 12.8125 13.9062C12.8125 14.1963 12.6973 14.4745 12.4921 14.6796C12.287 14.8848 12.0088 15 11.7188 15H8.4375C8.14742 15 7.86922 14.8848 7.6641 14.6796C7.45898 14.4745 7.34375 14.1963 7.34375 13.9062C7.34375 13.6162 7.45898 13.338 7.6641 13.1329C7.86922 12.9277 8.14742 12.8125 8.4375 12.8125ZM8.4375 19.375H18.2812C18.5713 19.375 18.8495 19.4902 19.0546 19.6954C19.2598 19.9005 19.375 20.1787 19.375 20.4688C19.375 20.7588 19.2598 21.037 19.0546 21.2421C18.8495 21.4473 18.5713 21.5625 18.2812 21.5625H8.4375C8.14742 21.5625 7.86922 21.4473 7.6641 21.2421C7.45898 21.037 7.34375 20.7588 7.34375 20.4688C7.34375 20.1787 7.45898 19.9005 7.6641 19.6954C7.86922 19.4902 8.14742 19.375 8.4375 19.375ZM34.6875 47.8125C34.6875 48.1026 34.5723 48.3808 34.3671 48.5859C34.162 48.791 33.8838 48.9062 33.5938 48.9062H16.0938C15.8037 48.9062 15.5255 48.791 15.3204 48.5859C15.1152 48.3808 15 48.1026 15 47.8125C15 47.5224 15.1152 47.2442 15.3204 47.0391C15.5255 46.834 15.8037 46.7188 16.0938 46.7188H17.4281L19.6156 37.9688H30.0719L32.2594 46.7188H33.5938C33.8838 46.7188 34.162 46.834 34.3671 47.0391C34.5723 47.2442 34.6875 47.5224 34.6875 47.8125ZM48.9062 27.0312V32.5C48.9062 33.3702 48.5605 34.2048 47.9452 34.8202C47.3298 35.4355 46.4952 35.7812 45.625 35.7812H4.0625C3.19226 35.7812 2.35766 35.4355 1.74231 34.8202C1.12695 34.2048 0.78125 33.3702 0.78125 32.5V27.0312H48.9062Z" fill="#FF6565"/>
</svg>
