<svg width="55" height="55" viewBox="0 0 55 55" fill="none" xmlns="http://www.w3.org/2000/svg">
<path d="M53.1406 1.73436C52.2446 0.83757 51.0707 0.271354 49.8111 0.128304C48.5515 -0.014746 47.2806 0.273836 46.2062 0.946856C33.6242 8.65272 22.9875 19.1547 15.1219 31.6375C15.1172 31.6701 15.1172 31.7033 15.1219 31.7359C11.5769 31.8997 8.23147 33.4235 5.78124 35.9906C1.18749 40.5625 0.093739 53.064 0.093739 53.6C0.0804609 53.7585 0.101903 53.9179 0.156571 54.0673C0.211239 54.2166 0.297817 54.3522 0.410272 54.4647C0.522727 54.5772 0.658353 54.6637 0.807696 54.7184C0.95704 54.7731 1.11651 54.7945 1.27499 54.7812C1.81093 54.7812 14.3234 53.6875 18.8844 49.0937C21.4394 46.653 22.962 43.3259 23.1391 39.7969H23.2375C35.7252 31.9188 46.2276 21.2667 53.9281 8.66873C54.5992 7.59379 54.8866 6.32334 54.7436 5.06421C54.6007 3.80508 54.0356 2.63144 53.1406 1.73436ZM17.3312 47.5515C14.1266 50.7562 5.69374 52.0578 2.42343 52.4515C2.81718 49.1703 4.11874 40.7484 7.32343 37.5437C9.38368 35.3498 12.2144 34.0403 15.2203 33.8906C15.9821 33.8635 16.7417 33.9878 17.4551 34.2563C18.1685 34.5248 18.8216 34.9321 19.3766 35.4547C19.6937 36.0453 19.0156 39.2719 16.5109 41.7656C15.8674 42.3325 15.1211 42.7706 14.3125 43.0562C14.171 43.1037 14.0407 43.1797 13.9296 43.2795C13.8186 43.3792 13.7291 43.5007 13.6668 43.6363C13.6044 43.7719 13.5705 43.9189 13.5671 44.0681C13.5637 44.2173 13.5909 44.3657 13.647 44.504C13.703 44.6424 13.7868 44.7678 13.8932 44.8725C13.9996 44.9772 14.1263 45.0591 14.2655 45.113C14.4047 45.1669 14.5534 45.1918 14.7026 45.1861C14.8517 45.1803 14.9982 45.1441 15.1328 45.0797C16.2278 44.6951 17.2354 44.0965 18.0969 43.3187C19.3438 42.0694 20.3258 40.5814 20.9844 38.9437C21.0316 40.557 20.7296 42.1614 20.0991 43.6471C19.4686 45.1328 18.5244 46.4647 17.3312 47.5515ZM52.0687 7.52029C44.6937 19.5321 34.7134 29.733 22.8656 37.3687C22.5472 36.073 21.8861 34.8867 20.9516 33.9344C19.9992 32.9998 18.8129 32.3387 17.5172 32.0203C25.1485 20.1697 35.3456 10.1857 47.3547 2.80623C48.0099 2.38661 48.7889 2.20351 49.5625 2.28731C50.3361 2.37111 51.0578 2.71676 51.608 3.26696C52.1582 3.81717 52.5039 4.53888 52.5877 5.31246C52.6715 6.08605 52.4884 6.86503 52.0687 7.52029Z" fill="white"/>
</svg>
