<svg width="55" height="49" viewBox="0 0 55 49" fill="none" xmlns="http://www.w3.org/2000/svg">
<path d="M51.5 0.09375H3.375C2.50476 0.09375 1.67016 0.439452 1.05481 1.05481C0.439452 1.67016 0.09375 2.50476 0.09375 3.375V44.9375C0.09375 45.8077 0.439452 46.6423 1.05481 47.2577C1.67016 47.873 2.50476 48.2188 3.375 48.2188H51.5C52.3702 48.2188 53.2048 47.873 53.8202 47.2577C54.4355 46.6423 54.7812 45.8077 54.7812 44.9375V3.375C54.7812 2.50476 54.4355 1.67016 53.8202 1.05481C53.2048 0.439452 52.3702 0.09375 51.5 0.09375ZM3.375 2.28125H51.5C51.7901 2.28125 52.0683 2.39648 52.2734 2.6016C52.4785 2.80672 52.5938 3.08492 52.5938 3.375V6.65625H2.28125V3.375C2.28125 3.08492 2.39648 2.80672 2.6016 2.6016C2.80672 2.39648 3.08492 2.28125 3.375 2.28125ZM51.5 46.0312H3.375C3.08492 46.0312 2.80672 45.916 2.6016 45.7109C2.39648 45.5058 2.28125 45.2276 2.28125 44.9375V8.84375H52.5938V44.9375C52.5938 45.2276 52.4785 45.5058 52.2734 45.7109C52.0683 45.916 51.7901 46.0312 51.5 46.0312ZM18.4578 18.2609L11.3266 27.4375L18.4578 36.6141C18.6141 36.8445 18.6765 37.1258 18.6325 37.4007C18.5885 37.6757 18.4414 37.9234 18.221 38.0936C18.0006 38.2637 17.7237 38.3435 17.4466 38.3165C17.1695 38.2895 16.9131 38.1579 16.7297 37.9484L9.07344 28.1047C8.92621 27.9134 8.84638 27.6789 8.84638 27.4375C8.84638 27.1961 8.92621 26.9616 9.07344 26.7703L16.7297 16.9266C16.8135 16.803 16.9217 16.6979 17.0477 16.6177C17.1736 16.5375 17.3147 16.484 17.4621 16.4604C17.6095 16.4368 17.7602 16.4436 17.9049 16.4805C18.0496 16.5173 18.1852 16.5834 18.3034 16.6747C18.4216 16.7659 18.5198 16.8804 18.5921 17.0111C18.6644 17.1417 18.7091 17.2858 18.7236 17.4344C18.738 17.583 18.7219 17.733 18.6762 17.8752C18.6305 18.0173 18.5562 18.1486 18.4578 18.2609ZM45.8016 26.7703C45.9488 26.9616 46.0286 27.1961 46.0286 27.4375C46.0286 27.6789 45.9488 27.9134 45.8016 28.1047C37.85 38.0687 38.2656 38.375 37.2812 38.375C37.0396 38.3742 36.805 38.2935 36.6141 38.1453C36.3854 37.968 36.2362 37.7073 36.1993 37.4204C36.1624 37.1334 36.2408 36.8434 36.4172 36.6141L43.5484 27.4375L36.4172 18.2609C36.2609 18.0305 36.1985 17.7492 36.2425 17.4743C36.2865 17.1993 36.4336 16.9516 36.654 16.7814C36.8744 16.6113 37.1513 16.5315 37.4284 16.5585C37.7055 16.5855 37.9619 16.7171 38.1453 16.9266L45.8016 26.7703ZM31.8125 17.9438L25.25 37.6312C25.1572 37.9068 24.9587 38.1342 24.6982 38.2635C24.4377 38.3927 24.1365 38.4131 23.8609 38.3203C23.5854 38.2275 23.3579 38.029 23.2287 37.7685C23.0995 37.508 23.0791 37.2068 23.1719 36.9313L29.7344 17.2437C29.7803 17.1073 29.8527 16.9812 29.9474 16.8728C30.0421 16.7643 30.1572 16.6755 30.2862 16.6115C30.4152 16.5475 30.5555 16.5096 30.6992 16.4998C30.8428 16.4901 30.987 16.5087 31.1234 16.5547C31.2599 16.6006 31.386 16.673 31.4944 16.7677C31.6029 16.8624 31.6917 16.9775 31.7557 17.1065C31.8196 17.2355 31.8576 17.3758 31.8673 17.5195C31.8771 17.6631 31.8585 17.8073 31.8125 17.9438Z" fill="white"/>
</svg>
