<svg width="47" height="47" viewBox="0 0 47 47" fill="none" xmlns="http://www.w3.org/2000/svg">
<path d="M43.625 0.21875H4.25C3.37976 0.21875 2.54516 0.564452 1.92981 1.17981C1.31445 1.79516 0.968752 2.62976 0.968752 3.5V31.9375C0.965066 32.7031 1.12217 33.4609 1.42988 34.1619C1.7376 34.8629 2.18908 35.4915 2.7551 36.007C3.32112 36.5225 3.98907 36.9135 4.71572 37.1545C5.44238 37.3955 6.21154 37.4813 6.97344 37.4062C9.92656 37.1219 11.9063 34.5406 11.9063 30.975V23.4391C11.8976 22.981 11.9797 22.5258 12.148 22.0996C12.3163 21.6735 12.5674 21.285 12.8868 20.9565C13.2061 20.628 13.5874 20.366 14.0086 20.1858C14.4298 20.0055 14.8825 19.9105 15.3406 19.9062C16.1841 19.9457 16.9798 20.3087 17.5625 20.9198C18.1451 21.5309 18.4697 22.3432 18.4688 23.1875V40.6875C18.4688 42.1379 19.0449 43.5289 20.0705 44.5545C21.0961 45.5801 22.4871 46.1562 23.9375 46.1562C26.8797 46.1562 29.4062 43.8375 29.4062 39.4297V27.8141C29.3976 27.356 29.4797 26.9008 29.648 26.4746C29.8163 26.0485 30.0674 25.66 30.3867 25.3315C30.7061 25.003 31.0874 24.741 31.5086 24.5608C31.9298 24.3805 32.3825 24.2855 32.8406 24.2812C33.6841 24.3207 34.4798 24.6837 35.0624 25.2948C35.6451 25.9059 35.9697 26.7182 35.9687 27.5625V34.125C35.9651 34.8906 36.1222 35.6484 36.4299 36.3494C36.7376 37.0504 37.1891 37.679 37.7551 38.1945C38.3211 38.71 38.9891 39.101 39.7157 39.342C40.4424 39.583 41.2115 39.6688 41.9734 39.5938C43.3487 39.4265 44.6135 38.7563 45.5242 37.7123C46.4349 36.6683 46.9272 35.3243 46.9062 33.9391V3.5C46.9062 2.62976 46.5605 1.79516 45.9452 1.17981C45.3298 0.564452 44.4952 0.21875 43.625 0.21875ZM42.5312 12.25C42.5312 12.5401 42.416 12.8183 42.2109 13.0234C42.0058 13.2285 41.7276 13.3438 41.4375 13.3438C41.1474 13.3438 40.8692 13.2285 40.6641 13.0234C40.459 12.8183 40.3437 12.5401 40.3437 12.25V7.875C40.3437 7.58492 40.2285 7.30672 40.0234 7.1016C39.8183 6.89648 39.5401 6.78125 39.25 6.78125H34.875C34.5849 6.78125 34.3067 6.66602 34.1016 6.4609C33.8965 6.25578 33.7812 5.97758 33.7812 5.6875C33.7812 5.39742 33.8965 5.11922 34.1016 4.9141C34.3067 4.70898 34.5849 4.59375 34.875 4.59375H39.25C40.1202 4.59375 40.9548 4.93945 41.5702 5.55481C42.1855 6.17016 42.5312 7.00476 42.5312 7.875V12.25Z" fill="#FF6565"/>
</svg>
