<svg width="24" height="24" viewBox="0 0 24 24" fill="none" xmlns="http://www.w3.org/2000/svg">
<path d="M20.5873 3.66307C18.7308 1.81418 16.2173 0.776123 13.5972 0.776123C10.977 0.776123 8.46357 1.81418 6.60701 3.66307C0.933731 9.32542 0.335451 22.2186 0.312482 22.7643C0.305632 22.9162 0.330516 23.0678 0.385546 23.2095C0.440577 23.3513 0.524546 23.4799 0.632093 23.5874C0.739641 23.6948 0.868406 23.7787 1.01017 23.8336C1.15194 23.8885 1.30359 23.9132 1.45545 23.9062C2.00232 23.8832 14.914 23.2861 20.5873 17.6226C21.5044 16.7063 22.2319 15.6182 22.7283 14.4206C23.2247 13.223 23.4802 11.9393 23.4802 10.6428C23.4802 9.34643 23.2247 8.06272 22.7283 6.86509C22.2319 5.66746 21.5044 4.57939 20.5873 3.66307Z" fill="#FF6565"/>
</svg>
