<svg width="34" height="38" viewBox="0 0 34 38" fill="none" xmlns="http://www.w3.org/2000/svg">
<path d="M30.1719 0.09375H3.92188C3.05163 0.09375 2.21703 0.439452 1.60168 1.05481C0.986327 1.67016 0.640625 2.50476 0.640625 3.375V25.25C0.640625 26.1202 0.986327 26.9548 1.60168 27.5702C2.21703 28.1855 3.05163 28.5312 3.92188 28.5312H12.0572L10.6889 35.0938H7.20312C6.91304 35.0938 6.63485 35.209 6.42973 35.4141C6.22461 35.6192 6.10938 35.8974 6.10938 36.1875C6.10938 36.4776 6.22461 36.7558 6.42973 36.9609C6.63485 37.166 6.91304 37.2812 7.20312 37.2812H26.8906C27.1807 37.2812 27.4589 37.166 27.664 36.9609C27.8691 36.7558 27.9844 36.4776 27.9844 36.1875C27.9844 35.8974 27.8691 35.6192 27.664 35.4141C27.4589 35.209 27.1807 35.0938 26.8906 35.0938H23.4048L22.0366 28.5312H30.1719C31.0421 28.5312 31.8767 28.1855 32.4921 27.5702C33.1074 26.9548 33.4531 26.1202 33.4531 25.25V3.375C33.4531 2.50476 33.1074 1.67016 32.4921 1.05481C31.8767 0.439452 31.0421 0.09375 30.1719 0.09375ZM3.92188 2.28125H30.1719C30.462 2.28125 30.7402 2.39648 30.9453 2.6016C31.1504 2.80672 31.2656 3.08492 31.2656 3.375V21.9688H2.82812V3.375C2.82812 3.08492 2.94336 2.80672 3.14848 2.6016C3.35359 2.39648 3.63179 2.28125 3.92188 2.28125ZM21.1714 35.0938H12.9223L14.2906 28.5312H19.8031L21.1714 35.0938ZM30.1719 26.3438H3.92188C3.63179 26.3438 3.35359 26.2285 3.14848 26.0234C2.94336 25.8183 2.82812 25.5401 2.82812 25.25V24.1562H31.2656V25.25C31.2656 25.5401 31.1504 25.8183 30.9453 26.0234C30.7402 26.2285 30.462 26.3438 30.1719 26.3438Z" fill="white"/>
</svg>
