<svg width="55" height="55" viewBox="0 0 55 55" fill="none" xmlns="http://www.w3.org/2000/svg">
<path d="M25.238 54.6979C18.6874 54.1616 12.5474 51.2899 7.93662 46.6061C3.32584 41.9222 0.55107 35.7379 0.117813 29.1796L0.0937506 28.8373C0.0655285 28.0683 0.292105 27.3114 0.738274 26.6844C1.18444 26.0574 1.82522 25.5953 2.56103 25.37C3.29685 25.1446 4.08649 25.1686 4.80727 25.4382C5.52805 25.7078 6.13959 26.208 6.54688 26.8609C8.1411 29.3575 10.5339 31.2406 13.3354 32.2032C16.1368 33.1658 19.1817 33.1511 21.9738 32.1617C24.7658 31.1722 27.1405 29.2662 28.7106 26.7544C30.2808 24.2426 30.9539 21.273 30.6203 18.3296C30.4031 16.2524 29.6849 14.2589 28.5276 12.5204C27.3703 10.7818 25.8083 9.35005 23.9758 8.34808C23.1419 7.8897 22.4801 7.17193 22.0909 6.30358C21.7017 5.43524 21.6062 4.46367 21.8189 3.53616C22.0316 2.60865 22.5409 1.77578 23.2696 1.16381C23.9984 0.551842 24.9067 0.194148 25.857 0.144952C27.1484 0.0723298 28.4433 0.0898724 29.7322 0.197452C36.9604 0.794438 43.6554 4.23838 48.3444 9.77164C53.0334 15.3049 55.3323 22.4742 54.7353 29.7024C54.1383 36.9307 50.6944 43.6257 45.1611 48.3147C39.6279 53.0037 32.4585 55.3026 25.2303 54.7056L25.238 54.6979ZM2.28125 28.729L2.29766 29.0473C2.53264 32.3448 3.41482 35.5638 4.89383 38.5204C6.37284 41.477 8.41971 44.1133 10.9176 46.2789C13.4154 48.4444 16.3154 50.0968 19.4518 51.1416C22.5883 52.1864 25.8998 52.6032 29.1973 52.3682C32.4949 52.1333 35.7138 51.2511 38.6704 49.7721C41.627 48.2931 44.2634 46.2462 46.4289 43.7483C48.5945 41.2504 50.2468 38.3505 51.2916 35.2141C52.3365 32.0776 52.7533 28.7661 52.5183 25.4685C52.0239 19.5313 49.45 13.959 45.2501 9.73338C41.0501 5.50779 35.4935 2.90006 29.5594 2.36964C28.3715 2.27167 27.1783 2.25559 25.9883 2.32151C25.509 2.34234 25.0498 2.52016 24.6815 2.82758C24.3132 3.135 24.0562 3.55497 23.95 4.02282C23.8438 4.49067 23.8944 4.98045 24.0939 5.41673C24.2935 5.85302 24.6309 6.21161 25.0542 6.4373C27.1922 7.60893 29.0142 9.28162 30.3639 11.3119C31.7135 13.3423 32.5507 15.6696 32.8034 18.0945C33.1901 21.5278 32.4031 24.9908 30.5707 27.9198C28.7382 30.8488 25.9682 33.0713 22.7116 34.2252C19.455 35.3792 15.9037 35.3967 12.6359 34.275C9.36803 33.1533 6.57617 30.9584 4.71484 28.0476C4.57093 27.7954 4.34686 27.5985 4.07823 27.4882C3.8096 27.3779 3.51182 27.3605 3.23218 27.4388C2.95254 27.5171 2.70708 27.6866 2.53479 27.9203C2.3625 28.1541 2.27327 28.4387 2.28125 28.729Z" fill="white"/>
</svg>
