<svg width="17" height="27" viewBox="0 0 17 27" fill="none" xmlns="http://www.w3.org/2000/svg">
<path d="M13.4948 0.988281H3.28646C2.6096 0.988281 1.96047 1.22341 1.48186 1.64194C1.00326 2.06047 0.734375 2.62812 0.734375 3.22001V24.0495C0.734375 24.6414 1.00326 25.2091 1.48186 25.6276C1.96047 26.0461 2.6096 26.2812 3.28646 26.2812H13.4948C14.1716 26.2812 14.8208 26.0461 15.2994 25.6276C15.778 25.2091 16.0469 24.6414 16.0469 24.0495V3.22001C16.0469 2.62812 15.778 2.06047 15.2994 1.64194C14.8208 1.22341 14.1716 0.988281 13.4948 0.988281ZM14.3455 24.0495C14.3455 24.2468 14.2559 24.436 14.0963 24.5755C13.9368 24.7151 13.7204 24.7934 13.4948 24.7934H3.28646C3.06084 24.7934 2.84446 24.7151 2.68493 24.5755C2.52539 24.436 2.43576 24.2468 2.43576 24.0495V3.22001C2.43576 3.02272 2.52539 2.8335 2.68493 2.69399C2.84446 2.55448 3.06084 2.4761 3.28646 2.4761H13.4948C13.7204 2.4761 13.9368 2.55448 14.0963 2.69399C14.2559 2.8335 14.3455 3.02272 14.3455 3.22001V24.0495Z" fill="white"/>
</svg>
